<svg width="28" height="24" viewBox="58 57 28 24" fill="none" xmlns="http://www.w3.org/2000/svg">
  <path d="M70.96 58.6953C77.3267 61.5775 80.8167 64.1532 82.4121 66.3867C83.3938 67.7611 83.6371 68.9753 83.4336 70.0508C83.2267 71.1435 82.5427 72.1745 81.5156 73.1348C79.4528 75.0633 76.1622 76.5628 73.335 77.5859C71.9305 78.0942 70.6578 78.4788 69.7363 78.7363C69.276 78.8649 68.9039 78.9619 68.6475 79.0264C68.5193 79.0586 68.4193 79.0826 68.3525 79.0986C68.3279 79.1045 68.3076 79.1086 68.292 79.1123L61.1748 79.4443C61.1876 79.4298 61.2017 79.4162 61.2148 79.4014C61.7431 78.8036 62.4814 77.947 63.3213 76.9121C64.9988 74.8453 67.0934 72.0536 68.7373 69.1748C70.3684 66.3183 71.6094 63.2848 71.4668 60.7637C71.4252 60.0285 71.2642 59.3316 70.96 58.6953Z" stroke="black" stroke-width="1.5" shape-rendering="geometricPrecision"/>
  <path d="M75 70.3115L74.8229 70.488L74.8234 70.4884L75 70.3115ZM74 69.3079L74.7421 72.0976L76.787 70.0601L74 69.3079ZM75.5 70.8106L75.6766 70.6337L75.1766 70.1346L75 70.3115L74.8234 70.4884L75.3234 70.9875L75.5 70.8106Z" fill="black"/>
</svg>
